# xmcd
#
# Track frame offsets:
#	150
#	14075
#	26047
#	43355
#	56392
#	69612
#	82940
#	93022
#	106140
#	119635
#	130322
#
# Disc length: 1916 seconds
#
# Revision: 2
# Processed by: cddbd v1.5.2PL0 Copyright (c) Steve Scherf et al.
# Submitted via: audiograbber 1.83.01
#
DISCID=93077a0b
DTITLE=Chicanos - Tesoros De Coleccion 3.2
DYEAR=1975
DGENRE=Latin
TTITLE0=La Pastora
TTITLE1=Amarga Navidad
TTITLE2=Noche De Ronda
TTITLE3=Por Dos Caminos
TTITLE4=Historia De Mi Vida
TTITLE5=Esta Noche Tu Mandas
TTITLE6=Hoy Como Ayer
TTITLE7=Poquita Fe (Sin Fe)
TTITLE8=Cariño Verdad
TTITLE9=Sacrificio
TTITLE10=Si Pudieras Amarme
EXTD=MS®
EXTT0=MS®
EXTT1=
EXTT2=
EXTT3=
EXTT4=
EXTT5=
EXTT6=
EXTT7=
EXTT8=
EXTT9=
EXTT10=
PLAYORDER=
